<svg xmlns="http://www.w3.org/2000/svg" xmlns:xlink="http://www.w3.org/1999/xlink" viewBox="0 0 916.92 271.68"><defs><style>.cls-1,.cls-4{fill:#fff;}.cls-2{fill:#a6a5a5;}.cls-3{fill:#010101;}.cls-4{opacity:0.1;}.cls-5{fill:url(#linear-gradient);}.cls-6{fill:url(#linear-gradient-2);}.cls-7{fill:url(#linear-gradient-3);}.cls-8{fill:url(#linear-gradient-4);}</style><linearGradient id="linear-gradient" x1="139.19" y1="54.65" x2="139.19" y2="219.92" gradientUnits="userSpaceOnUse"><stop offset="0" stop-color="#267caf"/><stop offset="0.29" stop-color="#4a92b4"/><stop offset="0.77" stop-color="#79bcba"/><stop offset="1" stop-color="#88cebc"/></linearGradient><linearGradient id="linear-gradient-2" x1="224.67" y1="118.19" x2="204.51" y2="163.78" gradientUnits="userSpaceOnUse"><stop offset="0" stop-color="#f48879"/><stop offset="0.12" stop-color="#f5907a"/><stop offset="0.71" stop-color="#fbb777"/><stop offset="1" stop-color="#fdc874"/></linearGradient><linearGradient id="linear-gradient-3" x1="194.69" y1="152.86" x2="104" y2="226.2" gradientUnits="userSpaceOnUse"><stop offset="0" stop-color="#eb413d"/><stop offset="0.17" stop-color="#d94452"/><stop offset="0.57" stop-color="#af487a"/><stop offset="0.86" stop-color="#954b92"/><stop offset="1" stop-color="#894a9c"/></linearGradient><linearGradient id="linear-gradient-4" x1="110.44" y1="59.13" x2="197.18" y2="125.38" gradientUnits="userSpaceOnUse"><stop offset="0" stop-color="#54c0ac"/><stop offset="1" stop-color="#dde79a"/></linearGradient></defs><title>3131Asset 1</title><g id="Layer_2" data-name="Layer 2"><g id="Layer_1-2" data-name="Layer 1"><path class="cls-1" d="M910.84,239.61a26,26,0,0,1-26,26H32.14a26.07,26.07,0,0,1-26.09-26V32.1a26.09,26.09,0,0,1,26.09-26H884.78a26.05,26.05,0,0,1,26.06,26h0V239.61Z"/><path class="cls-2" d="M884.79,271.68H32.14A32.13,32.13,0,0,1,0,239.61V32.11A32.16,32.16,0,0,1,32.14,0H884.78a32.18,32.18,0,0,1,32.14,32.11v207.5a32.14,32.14,0,0,1-32.13,32.07Z"/><path class="cls-3" d="M910.84,239.61a26,26,0,0,1-26,26H32.14a26.07,26.07,0,0,1-26.09-26V32.1a26.09,26.09,0,0,1,26.09-26H884.78a26.05,26.05,0,0,1,26.06,26h0V239.61Z"/><path class="cls-4" d="M884.79,0H428.08L607,271.68H884.79a32.15,32.15,0,0,0,32.13-32.09V32.11A32.16,32.16,0,0,0,884.79,0Z"/><path class="cls-1" d="M324,82.13c0,5.31-1.33,10-4.65,13.28a20.59,20.59,0,0,1-35.2-14.61,20.42,20.42,0,0,1,20.59-20.59,17.71,17.71,0,0,1,8,2c2.65,1.32,4.64,2.65,6,4.65l-3.32,3.32c-2.65-3.32-6-4.65-10.62-4.65a13.22,13.22,0,0,0-10.63,4.65c-3.32,2.65-4.65,6.64-4.65,11.29s1.33,8.63,4.65,11.28,6.64,4.65,10.63,4.65A14.53,14.53,0,0,0,316,92.75a11,11,0,0,0,3.32-8H304.74V79.47H324v2.66Zm30.54-16.6H336.61V78.14h16.61v4.65H336.61V95.41h17.93v5.31H331.3V60.88h23.24Zm21.92,35.19h-5.31V65.53H359.86V60.88h27.89v4.65H376.46Zm30.55,0V60.88h5.31v39.84Zm27.89,0h-5.31V65.53H418.3V60.88h27.23v4.65H434.24v35.19ZM498,95.41a20.59,20.59,0,0,1-35.2-14.61,20.59,20.59,0,1,1,41.18,0A19.53,19.53,0,0,1,498,95.41Zm-25.24-3.32a15.66,15.66,0,0,0,10.63,4.65A13.2,13.2,0,0,0,494,92.09a16,16,0,0,0,4.65-11.29c0-4.65-1.33-8.63-4.65-11.29a15.68,15.68,0,0,0-10.62-4.65,13.22,13.22,0,0,0-10.63,4.65A16.05,16.05,0,0,0,468.1,80.8C468.1,85.45,469.43,89.43,472.75,92.09Zm38.52,8.63V60.88h6l19.26,31.21V60.88h5.31v39.84h-5.31L515.92,68.18v32.54Z"/><path class="cls-1" d="M461.46,150.53c-15.93,0-28.55,11.95-28.55,28.55a28.35,28.35,0,0,0,28.55,28.56c15.94,0,28.56-11.95,28.56-28.56C490,161.82,477.4,150.53,461.46,150.53Zm0,45.16c-8.63,0-15.93-7.31-15.93-17.27s7.3-17.27,15.93-17.27,15.94,6.64,15.94,17.27C477.4,188.38,470.1,195.69,461.46,195.69ZM399.7,150.53c-15.94,0-28.55,11.95-28.55,28.55a28.34,28.34,0,0,0,28.55,28.56c15.94,0,28.56-11.95,28.56-28.56C428.26,161.82,415.64,150.53,399.7,150.53Zm0,45.16c-8.63,0-15.94-7.31-15.94-17.27s7.31-17.27,15.94-17.27,15.94,6.64,15.94,17.27C415.64,188.38,408.34,195.69,399.7,195.69ZM326,159.16v12h28.55c-.66,6.64-3.32,12-6.64,15.28-4,4-10.62,8.63-21.91,8.63-17.93,0-31.21-13.94-31.21-31.88s13.94-31.87,31.21-31.87a32.92,32.92,0,0,1,21.91,8.63l8.64-8.63c-7.31-6.64-16.61-12-29.89-12-23.91,0-44.49,19.93-44.49,43.83S302.74,207,326.65,207c13.28,0,22.58-4,30.55-12.62,8-8,10.63-19.26,10.63-27.89a24.7,24.7,0,0,0-.67-7.31Zm301.5,9.3c-2.66-6.64-9.3-17.93-23.91-17.93S577,161.82,577,179.08c0,15.94,12,28.56,27.89,28.56,12.62,0,20.59-8,23.24-12.62l-9.3-6.64c-3.32,4.65-7.3,8-13.94,8s-10.63-2.66-13.95-8.63l37.86-15.94-1.33-3.32ZM589,177.75c0-10.62,8.63-16.6,14.61-16.6,4.65,0,9.3,2.66,10.63,6L589,177.75ZM557.76,205h12.62V122H557.76ZM537.83,156.5a21.86,21.86,0,0,0-15.27-6.64c-13.95,0-27.23,12.62-27.23,28.56a27.5,27.5,0,0,0,27.23,27.89,19.08,19.08,0,0,0,14.61-6.64h.66v4c0,10.63-6,16.61-15.27,16.61a14.78,14.78,0,0,1-13.95-10L498,214.94c3.32,7.31,11.29,16.61,25.23,16.61,14.61,0,26.57-8.64,26.57-29.22V151.85h-12v4.65Zm-14.61,39.19c-8.63,0-15.93-7.31-15.93-17.27s7.3-17.27,15.93-17.27,15.28,7.31,15.28,17.27S531.86,195.69,523.22,195.69Zm162-73.72H655.38v83H668V173.77h17.26c14,0,27.23-10,27.23-25.9S699.21,122,685.26,122Zm.67,39.85H668V133.26h17.93a14.59,14.59,0,0,1,14.61,14c-.67,7.3-6,14.61-14.61,14.61Zm76.37-12c-9.3,0-18.6,4-21.92,12.62l11.29,4.65c2.66-4.65,6.64-6,11.29-6,6.64,0,12.62,4,13.29,10.63v.66a26.37,26.37,0,0,0-12.62-3.32c-12,0-23.91,6.64-23.91,18.6,0,11.29,10,18.59,20.59,18.59,8.63,0,12.61-4,15.94-8h.66V205h12V173.11c-1.33-14.61-12.61-23.25-26.56-23.25ZM761,195.69c-4,0-10-2-10-7.31,0-6.64,7.3-8.63,13.28-8.63,5.31,0,8,1.33,11.29,2.65C774.25,190.37,767.61,195.69,761,195.69Zm69.73-43.84-13.94,35.87h-.67l-14.61-35.87H788.2l21.91,50.48L797.5,230.22h12.61L844,151.85ZM719.13,205h12.62V122H719.13Z"/><path class="cls-5" d="M98.68,55.13c-2,2-2.65,5.31-2.65,9.3V211.19a13.1,13.1,0,0,0,3.32,9.3l.66.66,82.35-82.34v-1.33Z"/><path class="cls-6" d="M208.92,166.7l-27.23-27.23v-2l27.23-27.23.67.66,32.54,18.6c9.29,5.31,9.29,13.94,0,19.26Z"/><path class="cls-7" d="M209.59,166l-27.9-27.89-83,83c3.32,3.32,8,3.32,13.95.67l97-55.79"/><path class="cls-8" d="M209.59,110.25l-97-55.12c-6-3.32-10.63-2.66-13.95.66l83,82.35,27.9-27.89Z"/></g></g></svg>