<svg xmlns="http://www.w3.org/2000/svg" viewBox="0 0 916.92 271.68"><defs><style>.cls-1,.cls-4{fill:#fff;}.cls-2{fill:#a6a5a5;}.cls-3{fill:#010101;}.cls-4{opacity:0.1;}</style></defs><title>3131Asset 2</title><g id="Layer_2" data-name="Layer 2"><g id="Layer_1-2" data-name="Layer 1"><path class="cls-1" d="M910.84,239.61a26,26,0,0,1-26,26H32.14a26.07,26.07,0,0,1-26.09-26V32.1a26.09,26.09,0,0,1,26.09-26H884.78a26.05,26.05,0,0,1,26.06,26h0V239.61Z"/><path class="cls-2" d="M884.79,271.68H32.14A32.13,32.13,0,0,1,0,239.61V32.11A32.16,32.16,0,0,1,32.14,0H884.78a32.18,32.18,0,0,1,32.14,32.11v207.5a32.14,32.14,0,0,1-32.13,32.07Z"/><path class="cls-3" d="M910.84,239.61a26,26,0,0,1-26,26H32.14a26.07,26.07,0,0,1-26.09-26V32.1a26.09,26.09,0,0,1,26.09-26H884.78a26.05,26.05,0,0,1,26.06,26h0V239.61Z"/><path class="cls-4" d="M884.79,0H428.08L607,271.68H884.79a32.15,32.15,0,0,0,32.13-32.09V32.11A32.16,32.16,0,0,0,884.79,0Z"/><path class="cls-1" d="M211.28,138.28c-.19-21.41,17.54-31.83,18.35-32.32-10-14.64-25.61-16.64-31.08-16.8C185.48,87.79,172.8,97,166.14,97s-17-7.69-28.1-7.47c-14.23.22-27.53,8.46-34.83,21.24-15.06,26.07-3.83,64.37,10.6,85.44C121,206.53,129.46,218,140.5,217.64c10.8-.44,14.84-6.88,27.87-6.88s16.7,6.88,28,6.62c11.59-.18,18.89-10.37,25.85-20.78A84.87,84.87,0,0,0,234,172.53c-.27-.1-22.51-8.59-22.73-34.25ZM190,75.3c5.81-7.26,9.78-17.14,8.68-27.17-8.41.38-18.92,5.82-25,12.92-5.35,6.26-10.14,16.52-8.9,26.17,9.44.7,19.14-4.77,25.2-11.92Z"/><path class="cls-1" d="M367.71,208.48H352.62l-8.27-26H315.61l-7.87,26H293l28.48-88.43h17.59l28.6,88.43Zm-25.85-36.87-7.48-23.09q-1.19-3.54-4.46-16.66h-.26q-1.32,5.64-4.2,16.66l-7.36,23.09Zm98.95,4.2q0,16.27-8.84,25.71a25.94,25.94,0,0,1-19.66,8.4q-12.68,0-18.21-9v33.45H379.93V165.67q0-10.21-.53-20.95h12.47l.79,10.1h.26q7.09-11.41,21.52-11.42a23.64,23.64,0,0,1,18.83,8.92q7.53,8.94,7.54,23.49Zm-14.44.52q0-9.32-4.2-15.35a14.5,14.5,0,0,0-12.33-6.3,14.69,14.69,0,0,0-9.51,3.48,16.07,16.07,0,0,0-5.58,9.12,18.51,18.51,0,0,0-.66,4.31v10.64A17,17,0,0,0,398.36,194a14.15,14.15,0,0,0,11.08,4.79,14.54,14.54,0,0,0,12.47-6.17Q426.37,186.44,426.37,176.33Zm87.79-.52q0,16.27-8.84,25.71a25.92,25.92,0,0,1-19.66,8.4q-12.68,0-18.21-9v33.45H453.28V165.67q0-10.21-.53-20.95h12.46l.8,10.1h.26q7.08-11.41,21.52-11.42a23.7,23.7,0,0,1,18.84,8.92q7.51,8.94,7.53,23.49Zm-14.44.52q0-9.32-4.21-15.35a14.47,14.47,0,0,0-12.32-6.3,14.78,14.78,0,0,0-9.52,3.48,16.05,16.05,0,0,0-5.57,9.12,19.12,19.12,0,0,0-.67,4.31v10.64A17.12,17.12,0,0,0,471.69,194a14.21,14.21,0,0,0,11.1,4.79,14.52,14.52,0,0,0,12.47-6.17Q499.72,186.44,499.72,176.33Zm96.46,7.34q0,11.29-7.86,18.38-8.64,7.72-24.1,7.74-14.26,0-22.9-5.51l3.28-11.81A39.43,39.43,0,0,0,565.07,198q8,0,12.46-3.61a11.79,11.79,0,0,0,4.47-9.64,12.33,12.33,0,0,0-3.68-9.05q-3.68-3.67-12.2-6.82-23.24-8.67-23.24-25.33a22.36,22.36,0,0,1,8.2-17.84q8.2-7,21.72-7c8.05,0,14.76,1.4,20.08,4.2l-3.55,11.55a35.14,35.14,0,0,0-17-4.07c-5,0-8.92,1.23-11.72,3.68a10.5,10.5,0,0,0-3.56,8,10.84,10.84,0,0,0,4.08,8.66q3.52,3.14,12.85,6.82,11.43,4.6,16.8,10.75c3.61,4.1,5.4,9.23,5.4,15.33Zm47-28.32H627.53v31q0,11.82,8.27,11.81a25.1,25.1,0,0,0,6.29-.66l.39,10.75a31.89,31.89,0,0,1-11,1.57q-8.4,0-13.13-5.12c-3.14-3.42-4.73-9.14-4.73-17.19V155.32h-9.3V144.69h9.3V133l13.92-4.19v15.87h15.62v10.66Zm70.33,20.72q0,14.7-8.4,24.14-8.79,9.72-23.36,9.71-14.06,0-22.37-9.3T651,177.13q0-14.82,8.6-24.26t23.17-9.45q14,0,22.56,9.32,8.16,9,8.14,23.33Zm-14.69.33A28.61,28.61,0,0,0,695,161.35c-3-5.06-7.23-7.59-12.74-7.59-5.67,0-10,2.53-13,7.59-2.54,4.2-3.8,9.29-3.8,15.31a28.44,28.44,0,0,0,3.8,15.05q4.59,7.6,12.87,7.6c5.42,0,9.67-2.59,12.74-7.72a28.74,28.74,0,0,0,3.91-15.19Zm60.77-19.23a25.7,25.7,0,0,0-4.47-.39c-5,0-8.84,1.88-11.55,5.65Q740,167.41,740,175v33.46H725.84V164.8q0-10.05-.42-20.08h12.35l.52,12.2h.39a21.84,21.84,0,0,1,7.08-10.1A17.13,17.13,0,0,1,756,143.4a22.38,22.38,0,0,1,3.55.26v13.51Zm63.37,16.41a33,33,0,0,1-.52,6.43H779.9c.16,6.29,2.22,11.12,6.17,14.44q5.37,4.44,13.91,4.45a46.92,46.92,0,0,0,17.2-3l2.22,9.83q-9.06,3.94-21.38,3.94-14.84,0-23.31-8.72t-8.46-23.41q0-14.42,7.89-24,8.25-10.23,22.29-10.23,13.8,0,20.88,10.23c3.74,5.4,5.62,12.1,5.62,20.05Zm-13.51-3.67A19.16,19.16,0,0,0,806.67,159c-2.45-4-6.23-5.92-11.29-5.92a13.44,13.44,0,0,0-11.28,5.78,21.19,21.19,0,0,0-4.19,11l29.51,0Z"/><path class="cls-1" d="M311.52,96.47A91.54,91.54,0,0,1,301.34,96V53.2a76.38,76.38,0,0,1,12-.91c16.25,0,23.74,8,23.74,21C337.07,88.35,328.23,96.47,311.52,96.47Zm2.38-38.69a28.4,28.4,0,0,0-5.61.45v32.5a37.62,37.62,0,0,0,4.71.19c10.65,0,16.71-6.06,16.71-17.41C329.71,63.39,324.23,57.78,313.9,57.78Zm46.49,39c-9.16,0-15.1-6.83-15.1-16.12,0-9.67,6.07-16.57,15.62-16.57,9,0,15.09,6.51,15.09,16.06,0,9.8-6.25,16.63-15.61,16.63Zm.26-27.6c-5,0-8.25,4.71-8.25,11.28s3.29,11.16,8.19,11.16,8.19-5,8.19-11.29-3.23-11.15-8.13-11.15Zm67.58-4.44-9.81,31.33H412L408,82.47a103.16,103.16,0,0,1-2.52-10.12h-.14a67.41,67.41,0,0,1-2.51,10.12l-4.32,13.61H392l-9.23-31.33H390l3.55,14.89c.84,3.55,1.54,6.9,2.13,10.06h.13a102.48,102.48,0,0,1,2.58-10l4.45-15h5.68l4.26,14.64c1,3.55,1.87,7,2.52,10.32h.18a90.55,90.55,0,0,1,2.13-10.32l3.81-14.64Zm36.09,31.33h-7v-18c0-5.54-2.13-8.32-6.32-8.32s-7,3.55-7,7.67V96.08h-7V73.7c0-2.77-.07-5.74-.26-9H443l.32,4.84h.2a11.25,11.25,0,0,1,9.93-5.48c6.58,0,10.9,5,10.9,13.22V96.08Zm19.2,0h-7V50.37h7Zm25.4.71c-9.15,0-15.09-6.83-15.09-16.12,0-9.67,6.06-16.57,15.6-16.57,9,0,15.1,6.51,15.1,16.06,0,9.8-6.26,16.63-15.61,16.63Zm.26-27.6c-5,0-8.26,4.71-8.26,11.28s3.3,11.16,8.19,11.16,8.18-5,8.18-11.29-3.21-11.15-8.11-11.15ZM552,96.08l-.51-3.61h-.18c-2.13,2.91-5.23,4.32-9.17,4.32-5.61,0-9.6-3.93-9.6-9.22,0-7.73,6.7-11.73,18.32-11.73v-.58c0-4.13-2.19-6.2-6.51-6.2a14.67,14.67,0,0,0-8.19,2.33l-1.42-4.58A20,20,0,0,1,545.5,64.1c8.18,0,12.32,4.32,12.32,13V88.61a47.67,47.67,0,0,0,.45,7.48Zm-1-15.61c-7.73,0-11.62,1.88-11.62,6.32,0,3.29,2,4.9,4.78,4.9,3.54,0,6.84-2.7,6.84-6.38Zm40.61,15.61-.33-5h-.19c-2,3.8-5.36,5.74-10.06,5.74-7.56,0-13.15-6.64-13.15-16,0-9.8,5.8-16.71,13.72-16.71,4.19,0,7.17,1.42,8.84,4.26h.14v-18h7V87.64c0,3,.08,5.86.26,8.44Zm-1-18.44c0-4.38-2.9-8.12-7.34-8.12-5.16,0-8.32,4.57-8.32,11s3.28,10.64,8.18,10.64c4.38,0,7.48-3.8,7.48-8.31V77.64Zm51.18,19.15c-9.15,0-15.09-6.83-15.09-16.12,0-9.67,6.06-16.57,15.61-16.57,9,0,15.09,6.51,15.09,16.06,0,9.8-6.25,16.63-15.61,16.63Zm.26-27.6c-5,0-8.25,4.71-8.25,11.28s3.29,11.16,8.18,11.16,8.19-5,8.19-11.29S647,69.19,642.05,69.19Zm52.81,26.89h-7v-18c0-5.54-2.13-8.32-6.32-8.32s-7,3.55-7,7.67V96.08h-7V73.7c0-2.77-.06-5.74-.25-9h6.12l.33,4.84H674A11.27,11.27,0,0,1,684,64.09c6.58,0,10.91,5,10.91,13.22ZM741.72,70h-7.66V85.18c0,3.88,1.34,5.81,4.05,5.81a13.9,13.9,0,0,0,3.09-.32l.2,5.29a15.68,15.68,0,0,1-5.41.77c-5.49,0-8.77-3-8.77-11V70h-4.57V64.75h4.57V59l6.84-2.06v7.8h7.66V70ZM778.6,96.08h-7V78.22c0-5.61-2.12-8.44-6.32-8.44-3.61,0-7,2.45-7,7.41V96.08h-7V50.37h7V69.19h.14a10.59,10.59,0,0,1,9.43-5.1c6.63,0,10.69,5.16,10.69,13.35V96.08Zm37.77-14h-20.9c.13,5.93,4.06,9.28,9.88,9.28a23.57,23.57,0,0,0,8.44-1.48l1.09,4.84a26.21,26.21,0,0,1-10.52,1.93c-9.8,0-15.6-6.19-15.6-15.79S794.7,64,803.58,64c8,0,13,5.94,13,14.9a12.89,12.89,0,0,1-.24,3.16Zm-6.38-5c0-4.83-2.44-8.25-6.9-8.25-4,0-7.16,3.48-7.61,8.25Z"/></g></g></svg>